<svg width="328" height="328" viewBox="0 0 328 328" fill="none" xmlns="http://www.w3.org/2000/svg">
<rect width="328" height="328" rx="66" fill="#F27321"/>
<path d="M233.556 299.619V303.553H239.921V306.986H233.556V311.164H240.713V314.809H229V296H240.709V299.619H233.556Z" fill="#F27321"/>
<path d="M251.327 300.55C252.132 301.052 252.763 301.787 253.136 302.659V299.97H257.661V314.809H253.136V312.121C252.762 312.991 252.131 313.724 251.327 314.224C250.51 314.739 249.535 314.997 248.4 314.996C247.239 315.013 246.097 314.695 245.113 314.078C244.146 313.466 243.383 312.583 242.824 311.429C242.266 310.275 241.986 308.927 241.986 307.385C241.986 305.823 242.266 304.47 242.824 303.326C243.383 302.182 244.146 301.304 245.113 300.691C246.097 300.075 247.239 299.756 248.4 299.774C249.536 299.777 250.512 300.036 251.327 300.55ZM247.509 304.728C246.914 305.366 246.616 306.254 246.616 307.389C246.616 308.525 246.914 309.412 247.509 310.051C248.103 310.69 248.888 311.009 249.864 311.009C250.822 311.009 251.607 310.681 252.218 310.024C252.83 309.368 253.136 308.489 253.136 307.389C253.136 306.271 252.83 305.389 252.218 304.742C251.607 304.094 250.822 303.771 249.864 303.771C248.888 303.771 248.103 304.09 247.509 304.728Z" fill="#F27321"/>
<path d="M268.677 310.903V314.81H266.628C264.89 314.81 263.537 314.379 262.569 313.519C261.602 312.659 261.119 311.238 261.119 309.255V303.8H259.123V299.967H261.119V296.322H265.669V299.967H268.65V303.8H265.669V309.335C265.669 309.92 265.789 310.328 266.029 310.559C266.269 310.79 266.673 310.905 267.24 310.906L268.677 310.903Z" fill="#F27321"/>
<path d="M291.856 296.133V314.81H287.306V303.122L283.255 314.81H279.321L275.25 303.101V314.81H270.703V296.133H276.258L281.35 309.146L286.326 296.133H291.856Z" fill="#F27321"/>
<path d="M308.435 308.213H298.136C298.189 309.331 298.473 310.134 298.987 310.622C299.5 311.109 300.156 311.353 300.954 311.353C301.628 311.353 302.187 311.185 302.631 310.848C303.064 310.527 303.374 310.067 303.509 309.544H308.325C308.14 310.571 307.702 311.536 307.052 312.352C306.383 313.187 305.526 313.853 304.552 314.295C303.49 314.775 302.336 315.016 301.171 314.999C299.717 314.999 298.426 314.694 297.299 314.082C296.178 313.475 295.258 312.554 294.652 311.433C294.013 310.28 293.693 308.932 293.693 307.388C293.693 305.827 294.009 304.474 294.639 303.33C295.243 302.21 296.164 301.294 297.287 300.695C298.421 300.084 299.716 299.778 301.171 299.777C302.643 299.777 303.939 300.079 305.057 300.682C306.15 301.262 307.051 302.146 307.652 303.228C308.264 304.319 308.569 305.574 308.569 306.994C308.565 307.404 308.52 307.812 308.435 308.213ZM303.179 304.102C302.627 303.611 301.909 303.349 301.17 303.371C300.335 303.371 299.643 303.619 299.094 304.115C298.545 304.611 298.236 305.338 298.168 306.297H303.971C303.984 305.322 303.72 304.591 303.179 304.103V304.102Z" fill="#F27321"/>
<path d="M233.556 299.619V303.553H239.921V306.986H233.556V311.164H240.713V314.809H229V296H240.709V299.619H233.556Z" fill="#F27321"/>
<path d="M251.327 300.55C252.132 301.052 252.763 301.787 253.136 302.659V299.97H257.661V314.809H253.136V312.121C252.762 312.991 252.131 313.724 251.327 314.224C250.51 314.739 249.535 314.997 248.4 314.996C247.239 315.013 246.097 314.695 245.113 314.078C244.146 313.466 243.383 312.583 242.824 311.429C242.266 310.275 241.986 308.927 241.986 307.385C241.986 305.823 242.266 304.47 242.824 303.326C243.383 302.182 244.146 301.304 245.113 300.691C246.097 300.075 247.239 299.756 248.4 299.774C249.536 299.777 250.512 300.036 251.327 300.55ZM247.509 304.728C246.914 305.366 246.616 306.254 246.616 307.389C246.616 308.525 246.914 309.412 247.509 310.051C248.103 310.69 248.888 311.009 249.864 311.009C250.822 311.009 251.607 310.681 252.218 310.024C252.83 309.368 253.136 308.489 253.136 307.389C253.136 306.271 252.83 305.389 252.218 304.742C251.607 304.094 250.822 303.771 249.864 303.771C248.888 303.771 248.103 304.09 247.509 304.728Z" fill="#F27321"/>
<path d="M268.677 310.903V314.81H266.628C264.89 314.81 263.537 314.379 262.569 313.519C261.602 312.659 261.119 311.238 261.119 309.255V303.8H259.123V299.967H261.119V296.322H265.669V299.967H268.65V303.8H265.669V309.335C265.669 309.92 265.789 310.328 266.029 310.559C266.269 310.79 266.673 310.905 267.24 310.906L268.677 310.903Z" fill="#F27321"/>
<path d="M291.856 296.133V314.81H287.306V303.122L283.255 314.81H279.321L275.25 303.101V314.81H270.703V296.133H276.258L281.35 309.146L286.326 296.133H291.856Z" fill="#F27321"/>
<path d="M308.435 308.213H298.136C298.189 309.331 298.473 310.134 298.987 310.622C299.5 311.109 300.156 311.353 300.954 311.353C301.628 311.353 302.187 311.185 302.631 310.848C303.064 310.527 303.374 310.067 303.509 309.544H308.325C308.14 310.571 307.702 311.536 307.052 312.352C306.383 313.187 305.526 313.853 304.552 314.295C303.49 314.775 302.336 315.016 301.171 314.999C299.717 314.999 298.426 314.694 297.299 314.082C296.178 313.475 295.258 312.554 294.652 311.433C294.013 310.28 293.693 308.932 293.693 307.388C293.693 305.827 294.009 304.474 294.639 303.33C295.243 302.21 296.164 301.294 297.287 300.695C298.421 300.084 299.716 299.778 301.171 299.777C302.643 299.777 303.939 300.079 305.057 300.682C306.15 301.262 307.051 302.146 307.652 303.228C308.264 304.319 308.569 305.574 308.569 306.994C308.565 307.404 308.52 307.812 308.435 308.213ZM303.179 304.102C302.627 303.611 301.909 303.349 301.17 303.371C300.335 303.371 299.643 303.619 299.094 304.115C298.545 304.611 298.236 305.338 298.168 306.297H303.971C303.984 305.322 303.72 304.591 303.179 304.103V304.102Z" fill="#F27321"/>
<g clip-path="url(#clip0_236_8441)">
<path d="M92.9709 84.6648V102.787H122.283V118.582H92.9709V137.805H125.962V154.581H72V68H125.962V84.6648H92.9709Z" fill="white"/>
<path d="M175.137 88.9507C178.838 91.2523 181.747 94.6275 183.474 98.6248V86.2376H204.324V154.56H183.474V142.194C181.748 146.192 178.839 149.568 175.137 151.868C171.376 154.234 166.88 155.417 161.649 155.417C156.002 155.417 150.952 154.01 146.499 151.195C142.046 148.38 138.531 144.318 135.956 139.009C133.38 133.703 132.092 127.5 132.092 120.399C132.092 113.215 133.38 106.99 135.956 101.724C138.531 96.4574 142.046 92.417 146.499 89.6023C150.955 86.7849 156.005 85.3776 161.649 85.3804C166.877 85.3804 171.373 86.5705 175.137 88.9507ZM157.536 108.174C154.797 111.115 153.428 115.197 153.428 120.42C153.428 125.644 154.797 129.725 157.536 132.666C160.275 135.6 163.894 137.069 168.393 137.072C172.806 137.072 176.423 135.562 179.245 132.542C182.067 129.521 183.477 125.481 183.474 120.42C183.474 115.277 182.064 111.215 179.245 108.234C176.426 105.254 172.809 103.765 168.393 103.768C163.894 103.754 160.275 105.215 157.536 108.153V108.174Z" fill="white"/>
<path d="M255.34 136.563V154.565H245.896C237.882 154.565 231.648 152.587 227.192 148.629C222.736 144.671 220.508 138.121 220.513 128.977V103.868H211.312V86.239H220.513V69.4629H241.483V86.239H255.221V103.868H241.483V129.337C241.483 132.031 242.034 133.909 243.135 134.969C244.237 136.029 246.098 136.561 248.716 136.563H255.34Z" fill="white"/>
<path d="M174.149 169.054V258.829H152.256V202.679L132.787 258.829H113.813L94.2239 202.559V258.829H72.3301V169.054H99.1007L123.57 231.589L147.521 169.054H174.149Z" fill="white"/>
<path d="M254.191 227.116H204.638C204.89 232.485 206.255 236.343 208.733 238.688C211.211 241.034 214.371 242.206 218.211 242.204C221.457 242.204 224.148 241.394 226.282 239.777C228.366 238.23 229.857 236.019 230.512 233.511H253.693C252.795 238.446 250.682 243.081 247.545 246.999C244.33 251.012 240.211 254.211 235.525 256.338C230.66 258.597 225.238 259.725 219.26 259.725C212.255 259.725 206.044 258.254 200.624 255.315C195.226 252.4 190.796 247.977 187.878 242.589C184.804 237.046 183.268 230.566 183.268 223.151C183.268 215.649 184.783 209.149 187.814 203.649C190.715 198.273 195.137 193.869 200.529 190.987C205.99 188.047 212.224 186.575 219.229 186.572C226.316 186.572 232.549 188.022 237.93 190.923C243.187 193.702 247.525 197.943 250.417 203.134C253.368 208.381 254.841 214.413 254.834 221.23C254.815 223.208 254.599 225.18 254.191 227.116ZM228.897 207.356C226.299 205.002 223.078 203.824 219.238 203.824C215.231 203.824 211.901 205.019 209.248 207.407C206.595 209.797 205.1 213.292 204.762 217.891H232.666C232.764 213.217 231.512 209.704 228.91 207.356H228.897Z" fill="white"/>
</g>
<defs>
<clipPath id="clip0_236_8441">
<rect width="184" height="192" fill="white" transform="translate(72 68)"/>
</clipPath>
</defs>
</svg>
